# xmcd
#
# Track frame offsets: 
#        150
#        12123
#        25547
#        33483
#        44786
#        59642
#        72528
#        84629
#        94081
#        104164
#        117932
#        128938
#        148810
#        174061
#        192980
#        201353
#        230573
#        239710
#        258407
#        268497
#        277204
#        286732
#        303700
#        322524
#        332580
#
# Disc length: 4598 seconds
#
# Revision: 0
# Processed by: cddbd v1.5.2PL0 Copyright (c) Steve Scherf et al.
# Submitted via: ExactAudioCopy v1.3
#
DISCID=8711f419
DTITLE=ВЛАДИМИР ВЫСОЦКИЙ - «Лучшее. Том 1» Диск1
DYEAR=2008
DGENRE=Chanson
TTITLE0=Скалолазка
TTITLE1=Москва - Одесса
TTITLE2=Она была в Париже
TTITLE3=Ноль семь
TTITLE4=Лирическая
TTITLE5=Корабли постоят
TTITLE6=Ещё не вечер
TTITLE7=Песенка о переселении душ
TTITLE8=Что случилось в Африке
TTITLE9=Утренняя гимнастика
TTITLE10=Дом хрустальный
TTITLE11=Моя цыганская
TTITLE12=Кони привередливые
TTITLE13=Баллада о времени
TTITLE14=Баллада о вольных стрелках
TTITLE15=Баллада о любви
TTITLE16=Баллада о ненависти
TTITLE17=Баллада о борьбе
TTITLE18=Баллада о коротком счастье
TTITLE19=Куплеты Бенгальского
TTITLE20=Баллада о цветах, деревьях и миллионерах
TTITLE21=Романс (было так - я любил и страдал)
TTITLE22=Кто за кем бежит
TTITLE23=Песенка плагиатора
TTITLE24=Песня о двух красивых автомобилях
EXTD=
EXTT0=
EXTT1=
EXTT2=
EXTT3=
EXTT4=
EXTT5=
EXTT6=
EXTT7=
EXTT8=
EXTT9=
EXTT10=
EXTT11=
EXTT12=
EXTT13=
EXTT14=
EXTT15=
EXTT16=
EXTT17=
EXTT18=
EXTT19=
EXTT20=
EXTT21=
EXTT22=
EXTT23=
EXTT24=
PLAYORDER=
